Coordinates
version=1
nRows=8
nColumns=63
inDegrees=yes

Units are S.I. units (second, meters, Newtons, ...)
If the header above contains a line with 'inDegrees', this indicates whether rotational values are in degrees (yes) or radians (no).

endheader
time	pelvis_tilt	pelvis_list	pelvis_rotation	pelvis_tx	pelvis_ty	pelvis_tz	hip_flexion_r	hip_adduction_r	hip_rotation_r	knee_angle_r	knee_angle_r_beta	ankle_angle_r	subtalar_angle_r	mtp_angle_r	hip_flexion_l	hip_adduction_l	hip_rotation_l	knee_angle_l	knee_angle_l_beta	ankle_angle_l	subtalar_angle_l	mtp_angle_l	L5_S1_Flex_Ext	L5_S1_Lat_Bending	L5_S1_axial_rotation	L4_L5_Flex_Ext	L4_L5_Lat_Bending	L4_L5_axial_rotation	L3_L4_Flex_Ext	L3_L4_Lat_Bending	L3_L4_axial_rotation	L2_L3_Flex_Ext	L2_L3_Lat_Bending	L2_L3_axial_rotation	L1_L2_Flex_Ext	L1_L2_Lat_Bending	L1_L2_axial_rotation	L1_T12_Flex_Ext	L1_T12_Lat_Bending	L1_T12_axial_rotation	Abs_r3	Abs_r2	Abs_r1	Abs_t1	Abs_t2	neck_flexion	neck_bending	neck_rotation	arm_flex_r	arm_add_r	arm_rot_r	elbow_flex_r	pro_sup_r	wrist_flex_r	wrist_dev_r	arm_flex_l	arm_add_l	arm_rot_l	elbow_flex_l	pro_sup_l	wrist_flex_l	wrist_dev_l
1.533333	-3.742224	1.458731	95.089405	0.077657	0.989877	0.489877	-3.411018	-4.594227	-6.052369	11.855820	0.206923	34.565199	10.928851	0.000000	-7.795516	4.612514	5.096741	1.393829	0.024327	28.898713	-5.031330	0.000000	0.048863	-0.482177	1.243955	0.090743	-0.641295	1.321702	0.080277	-1.172364	1.321702	0.055845	-1.172364	1.088460	0.045374	-0.983255	1.010713	0.027920	-0.746892	0.932966	0.349023	-5.454479	6.918504	0.000000	0.000000	9.382050	2.589530	0.785425	-3.528611	-19.010964	37.689680	67.902901	74.259878	-1.594414	9.672261	-0.750615	-25.588557	42.049254	65.941865	89.596435	-3.407491	5.534304
1.550000	-3.712819	1.559408	94.838895	0.078359	0.989948	0.489268	-3.499125	-4.487404	-5.383506	11.753126	0.205131	34.564661	10.552221	0.000000	-7.973170	4.569894	4.812321	1.354580	0.023642	28.982449	-4.912004	0.000000	0.047192	-0.473719	1.301130	0.087641	-0.630046	1.382451	0.077532	-1.151800	1.382451	0.053936	-1.151800	1.138489	0.043823	-0.966007	1.057169	0.026966	-0.733790	0.975848	0.337090	-5.358802	7.236497	0.000000	0.000000	9.443886	2.528485	0.997587	-3.476763	-19.077574	36.870913	68.202714	73.111832	-0.533726	11.594976	-1.782375	-26.137595	40.310781	67.266689	89.894780	-3.458471	6.640462
1.566667	-3.639820	1.620148	94.666771	0.078850	0.990014	0.488855	-3.523324	-4.341700	-4.764987	11.666920	0.203626	34.552770	10.161563	0.000000	-8.084473	4.482589	4.639411	1.310621	0.022875	29.060677	-4.815947	0.000000	0.047710	-0.459963	1.333600	0.088602	-0.611751	1.416950	0.078383	-1.118354	1.416950	0.054528	-1.118354	1.166900	0.044303	-0.937956	1.083550	0.027261	-0.712482	1.000200	0.340787	-5.203191	7.417084	0.000000	0.000000	9.424315	2.453505	1.245303	-3.348766	-19.182633	36.129225	68.469559	72.103327	0.584578	13.579572	-2.839525	-26.496937	38.370336	68.612402	89.770994	-3.554505	7.936456
1.583333	-3.540569	1.639225	94.579180	0.079143	0.990073	0.488677	-3.486552	-4.176105	-4.225137	11.599517	0.202450	34.519996	9.773636	0.000000	-8.122990	4.367311	4.598378	1.266191	0.022099	29.141198	-4.751452	0.000000	0.048439	-0.443574	1.339236	0.089956	-0.589953	1.422939	0.079581	-1.078506	1.422939	0.055361	-1.078506	1.171832	0.044981	-0.904536	1.088129	0.027678	-0.687096	1.004427	0.345996	-5.017797	7.448430	0.000000	0.000000	9.315177	2.394795	1.501402	-3.119610	-19.335033	35.527429	68.687538	71.409922	1.572620	15.426712	-3.930461	-26.672187	36.180142	69.946542	89.408380	-3.710599	9.301292
1.600000	-3.428877	1.610158	94.600013	0.079220	0.990122	0.488758	-3.397810	-4.005809	-3.812076	11.536571	0.201351	34.451860	9.409947	0.000000	-8.075003	4.236710	4.686338	1.232843	0.021517	29.216271	-4.692594	0.000000	0.049487	-0.426326	1.312490	0.091903	-0.567014	1.394521	0.081303	-1.036570	1.394521	0.056559	-1.036570	1.148429	0.045954	-0.869365	1.066398	0.028277	-0.660380	0.984368	0.353482	-4.822689	7.299676	0.000000	0.000000	9.130493	2.365369	1.787567	-2.767894	-19.540723	35.126327	68.832847	71.361348	2.249541	16.951662	-5.051555	-26.681382	33.701919	71.238784	89.162124	-3.883040	10.656014
1.616667	-3.308712	1.530712	94.747526	0.079076	0.990149	0.489073	-3.262889	-3.831695	-3.510860	11.480523	0.200373	34.338946	9.020333	0.000000	-7.942880	4.092566	4.939334	1.203808	0.021010	29.258317	-4.684279	0.000000	0.051960	-0.408960	1.249448	0.096495	-0.543917	1.327539	0.085365	-0.994346	1.327539	0.059385	-0.994346	1.093267	0.048250	-0.833952	1.015177	0.029690	-0.633480	0.937086	0.371146	-4.626242	6.949056	0.000000	0.000000	8.894448	2.377264	2.106416	-2.296764	-19.799202	34.968574	68.900395	72.021905	2.486604	18.022952	-6.170165	-26.554903	31.046070	72.441242	89.014058	-4.155818	11.742194
1.633333	-3.224065	1.422293	94.969154	0.078838	0.990182	0.489644	-3.089787	-3.700605	-3.291523	11.458788	0.199994	34.195610	8.621688	0.000000	-7.758623	3.981261	5.289281	1.177676	0.020554	29.245213	-4.737584	0.000000	0.051777	-0.396840	1.165805	0.096155	-0.527797	1.238668	0.085064	-0.964876	1.238668	0.059176	-0.964876	1.020080	0.048080	-0.809235	0.947217	0.029585	-0.614704	0.874354	0.369838	-4.489128	6.483859	0.000000	0.000000	8.642921	2.450278	2.411519	-1.707608	-20.101936	35.049568	68.892239	73.349498	2.308053	18.597437	-7.178315	-26.339978	28.371065	73.538978	88.904060	-4.499153	12.566235
1.650000	-3.163616	1.286938	95.298799	0.078456	0.990204	0.490437	-2.899087	-3.598118	-3.181256	11.445940	0.199769	34.021744	8.208703	0.000000	-7.523872	3.887478	5.773455	1.156596	0.020186	29.199927	-4.842292	0.000000	0.050928	-0.388149	1.060878	0.094579	-0.516238	1.127183	0.083670	-0.943745	1.127183	0.058206	-0.943745	0.928268	0.047292	-0.791513	0.861963	0.029101	-0.601243	0.795658	0.363777	-4.390819	5.900285	0.000000	0.000000	8.380963	2.560494	2.721364	-1.052618	-20.438211	35.297875	68.828745	75.268084	1.681219	18.623201	-8.013923	-26.052713	25.830840	74.479472	88.821389	-4.948215	12.928562
